<svg width="487" height="215" viewBox="0 0 487 215" fill="none" xmlns="http://www.w3.org/2000/svg">
<path fill-rule="evenodd" clip-rule="evenodd" d="M102.99 1.61829C95.237 4.98129 91.96 10.7393 91.96 20.9953V28.0353H81.276C63.584 28.0353 58.037 32.3683 56.996 46.9993L56.46 54.5353L47.777 55.0353C37.632 55.6193 34.707 57.2123 31.21 64.0553C29.308 67.7783 28.96 70.0493 28.96 78.7473V89.0353L19.71 89.0393C8.37504 89.0433 4.86305 90.7393 1.78705 97.6943C-0.891955 103.75 -0.495956 114.608 2.55304 118.691C6.83404 124.425 9.39304 125.509 19.531 125.882L28.96 126.228L28.982 135.882C29.022 153.455 34.782 159.878 50.604 159.991L56.748 160.035L57.104 167.785C57.519 176.83 59.718 180.851 66.004 184.058C69.173 185.674 71.896 186.035 80.92 186.035H91.96L91.982 192.785C91.996 197.176 92.646 200.933 93.841 203.535C97.667 211.867 102.73 214.035 118.363 214.035C130.882 214.035 134.01 213.28 138.299 209.221C144.528 203.328 144.431 204.012 144.766 163.302L145.071 126.069L170.157 125.802C192.298 125.566 195.367 125.339 196.294 123.869C197.056 122.66 196.983 121.768 196.03 120.619C194.888 119.244 191.071 119.035 167.038 119.035C146.844 119.035 139.036 119.359 138.16 120.235C137.268 121.127 136.959 131.339 136.956 159.985C136.953 196.431 136.846 198.709 135.004 201.731C132.368 206.054 127.622 207.325 115.748 206.888C105.134 206.497 102.896 205.399 100.322 199.317C98.273 194.475 98.307 18.1993 100.358 14.2333C103.244 8.65129 105.366 7.65329 115.267 7.22229C127.107 6.70529 132.406 8.07929 135.002 12.3363C136.852 15.3703 136.953 17.6433 136.956 56.3513C136.959 82.5663 137.33 97.8583 137.995 99.1013C138.964 100.911 140.273 101.035 158.373 101.035C179.046 101.035 180.908 100.598 179.475 96.0833C178.854 94.1263 178.079 94.0353 161.954 94.0353H145.083L144.772 53.7853C144.499 18.5923 144.252 13.1583 142.805 10.5353C140.552 6.45129 137.154 3.43229 132.728 1.58329C127.675 -0.528708 107.885 -0.504708 102.99 1.61829ZM353.441 1.42929C349.328 3.22129 344.292 9.17929 343.02 13.7583C342.373 16.0893 341.969 32.1803 341.966 55.7853L341.96 94.0353H310.082C283.597 94.0353 278.003 94.2783 277.013 95.4713C276.128 96.5373 276.106 97.4393 276.926 98.9713C278.009 100.996 278.693 101.035 312.96 101.035C346.47 101.035 347.932 100.956 348.925 99.1013C349.591 97.8573 349.96 82.3653 349.96 55.6783V14.1893L352.966 11.1833C355.297 8.85229 357.226 8.02129 361.563 7.47929C370.269 6.39129 380.643 7.43829 383.088 9.65129C388.14 14.2233 387.96 10.6233 387.96 107.084C387.96 207.027 388.276 202.234 381.482 205.458C379.275 206.505 375.351 207.033 369.809 207.029C358.693 207.022 354.359 205.737 351.912 201.724C350.077 198.714 349.967 196.41 349.964 160.719C349.961 136.572 349.586 122.204 348.925 120.969C347.938 119.125 346.538 119.035 318.96 119.035C292.271 119.035 289.957 119.173 289.08 120.811C288.477 121.937 288.482 123.217 289.094 124.311C289.969 125.874 292.483 126.035 316.01 126.035H341.96L341.966 161.285C341.969 182.797 342.38 198.007 343.02 200.312C344.325 205.013 349.388 210.898 353.662 212.684C355.77 213.565 360.998 214.027 368.678 214.013C382.436 213.987 386.981 212.496 391.547 206.51C393.985 203.314 394.479 201.58 394.931 194.651L395.46 186.535L402.96 186.862C421.583 187.675 429.96 181.381 429.96 166.575V160.035H436.217C444.52 160.035 448.644 158.733 452.655 154.846C456.878 150.753 457.947 146.804 457.954 135.285L457.96 126.035H466.559C481.206 126.035 486.173 121.947 486.808 109.373C487.242 100.785 485.951 96.3603 481.874 92.4503C478.974 89.6703 478.351 89.5193 468.397 89.1943L457.96 88.8533V78.6563C457.96 70.0523 457.608 67.7713 455.71 64.0553C452.213 57.2123 449.288 55.6193 439.143 55.0353L430.46 54.5353L429.924 46.9993C428.883 32.3683 423.336 28.0353 405.644 28.0353H394.96V21.5033C394.96 11.2013 391.786 5.28029 384.46 1.91629C379.476 -0.372708 358.337 -0.704708 353.441 1.42929ZM126.21 32.6973C125.227 33.0943 124.96 47.7073 124.96 101.051C124.96 168.552 124.971 168.904 127.008 169.55C132.074 171.158 131.96 172.721 131.96 101.847C131.96 58.3033 131.608 35.2463 130.925 33.9693C129.901 32.0573 128.64 31.7173 126.21 32.6973ZM91.96 179.035H82.41C71.599 179.035 67.886 177.727 65.477 173.068C63.197 168.66 63.193 45.4183 65.473 41.0113C67.901 36.3153 71.27 35.1203 82.21 35.0753L91.96 35.0353V179.035ZM416.993 36.5523C423.122 39.7223 422.96 37.8043 422.96 107.035C422.96 161.06 422.745 170.55 421.466 173.024C418.792 178.194 416.522 179.035 405.237 179.035H394.96V35.0353H404.51C411.09 35.0353 414.971 35.5073 416.993 36.5523ZM355.995 57.9693C355.316 59.2393 354.96 79.8763 354.96 118.035C354.96 156.194 355.316 176.831 355.995 178.101C356.565 179.165 357.899 180.035 358.96 180.035C360.021 180.035 361.355 179.165 361.925 178.101C362.604 176.831 362.96 156.194 362.96 118.035C362.96 79.8763 362.604 59.2393 361.925 57.9693C361.355 56.9053 360.021 56.0353 358.96 56.0353C357.899 56.0353 356.565 56.9053 355.995 57.9693ZM56.981 152.035H49.657C42.939 152.035 42.112 151.803 39.647 149.23L36.96 146.426V67.2133L40.088 64.5813C42.884 62.2283 43.917 61.9803 49.838 62.2423L56.46 62.5353L56.981 152.035ZM446.027 63.7343C447.609 64.6683 449.366 66.7603 449.931 68.3833C450.562 70.1923 450.96 85.2103 450.96 107.216C450.96 152.629 451.145 152.035 437.026 152.035H429.96V62.0353H436.556C440.966 62.0353 444.104 62.5983 446.027 63.7343ZM28.96 119.24L20.372 118.888C9.35704 118.435 7.96005 117.097 7.96005 106.997C7.96005 100.824 8.20904 99.9843 10.595 98.1083C12.753 96.4103 14.652 96.0353 21.095 96.0353H28.96V119.24ZM477.477 99.2373C479.891 102.107 480.126 103.057 479.741 108.388C479.383 113.337 478.851 114.732 476.58 116.686C474.209 118.725 472.8 119.035 465.904 119.035H457.96V96.0353H466.371C474.607 96.0353 474.838 96.1023 477.477 99.2373Z" fill="#161161"/>
<path fill-rule="evenodd" clip-rule="evenodd" d="M223.832 25.6964C222.576 27.2164 222.651 27.2384 224.71 25.9554C226.639 24.7544 227.281 24.7544 229.21 25.9554C231.269 27.2384 231.344 27.2164 230.088 25.6964C229.333 24.7824 227.925 24.0354 226.96 24.0354C225.995 24.0354 224.587 24.7824 223.832 25.6964ZM222.039 30.6184C222.087 31.7834 222.324 32.0204 222.643 31.2234C222.932 30.5014 222.896 29.6384 222.564 29.3064C222.232 28.9744 221.996 29.5644 222.039 30.6184ZM231.118 31.0354C231.118 32.4104 231.345 32.9734 231.622 32.2854C231.9 31.5984 231.9 30.4734 231.622 29.7854C231.345 29.0984 231.118 29.6604 231.118 31.0354ZM221.039 35.6184C221.087 36.7834 221.324 37.0204 221.643 36.2234C221.932 35.5014 221.896 34.6384 221.564 34.3064C221.232 33.9744 220.996 34.5644 221.039 35.6184ZM232.118 39.0354C232.118 40.4104 232.345 40.9734 232.622 40.2854C232.9 39.5984 232.9 38.4734 232.622 37.7854C232.345 37.0984 232.118 37.6604 232.118 39.0354ZM220.039 40.6184C220.087 41.7834 220.324 42.0204 220.643 41.2234C220.932 40.5014 220.896 39.6384 220.564 39.3064C220.232 38.9744 219.996 39.5644 220.039 40.6184ZM219.039 45.6184C219.087 46.7834 219.324 47.0204 219.643 46.2234C219.932 45.5014 219.896 44.6384 219.564 44.3064C219.232 43.9744 218.996 44.5644 219.039 45.6184ZM233.118 46.0354C233.118 47.4104 233.345 47.9734 233.622 47.2854C233.9 46.5984 233.9 45.4734 233.622 44.7854C233.345 44.0984 233.118 44.6604 233.118 46.0354ZM218.118 51.0354C218.118 52.4104 218.345 52.9734 218.622 52.2854C218.9 51.5984 218.9 50.4734 218.622 49.7854C218.345 49.0984 218.118 49.6604 218.118 51.0354ZM234.155 53.5354C234.175 55.1854 234.399 55.7394 234.653 54.7664C234.907 53.7934 234.89 52.4434 234.616 51.7664C234.342 51.0894 234.135 51.8854 234.155 53.5354ZM217.039 56.6184C217.087 57.7834 217.324 58.0204 217.643 57.2234C217.932 56.5014 217.896 55.6384 217.564 55.3064C217.232 54.9744 216.996 55.5644 217.039 56.6184ZM224.96 56.4764C224.96 57.2694 225.41 58.1954 225.96 58.5354C226.51 58.8754 226.96 58.2264 226.96 57.0944C226.96 55.9624 226.51 55.0354 225.96 55.0354C225.41 55.0354 224.96 55.6834 224.96 56.4764ZM216.118 61.0354C216.118 62.4104 216.345 62.9734 216.622 62.2854C216.9 61.5984 216.9 60.4734 216.622 59.7854C216.345 59.0984 216.118 59.6604 216.118 61.0354ZM235.155 61.5354C235.175 63.1854 235.399 63.7394 235.653 62.7664C235.907 61.7934 235.89 60.4434 235.616 59.7664C235.342 59.0894 235.135 59.8854 235.155 61.5354ZM224.039 61.6184C224.087 62.7834 224.324 63.0204 224.643 62.2234C224.932 61.5014 224.896 60.6384 224.564 60.3064C224.232 59.9744 223.996 60.5644 224.039 61.6184ZM227.155 63.5354C227.175 65.1854 227.399 65.7394 227.653 64.7664C227.907 63.7934 227.89 62.4434 227.616 61.7664C227.342 61.0894 227.135 61.8854 227.155 63.5354ZM215.039 66.6184C215.087 67.7834 215.324 68.0204 215.643 67.2234C215.932 66.5014 215.896 65.6384 215.564 65.3064C215.232 64.9744 214.996 65.5644 215.039 66.6184ZM223.039 67.6184C223.087 68.7834 223.324 69.0204 223.643 68.2234C223.932 67.5014 223.896 66.6384 223.564 66.3064C223.232 65.9744 222.996 66.5644 223.039 67.6184ZM236.118 69.0354C236.118 70.4104 236.345 70.9734 236.622 70.2854C236.9 69.5984 236.9 68.4734 236.622 67.7854C236.345 67.0984 236.118 67.6604 236.118 69.0354ZM228.155 71.5354C228.175 73.1854 228.399 73.7394 228.653 72.7664C228.907 71.7934 228.89 70.4434 228.616 69.7664C228.342 69.0894 228.135 69.8854 228.155 71.5354ZM214.039 71.6184C214.087 72.7834 214.324 73.0204 214.643 72.2234C214.932 71.5014 214.896 70.6384 214.564 70.3064C214.232 69.9744 213.996 70.5644 214.039 71.6184ZM222.118 73.0354C222.118 74.4104 222.345 74.9734 222.622 74.2854C222.9 73.5984 222.9 72.4734 222.622 71.7854C222.345 71.0984 222.118 71.6604 222.118 73.0354ZM213.118 77.0354C213.118 78.4104 213.345 78.9734 213.622 78.2854C213.9 77.5984 213.9 76.4734 213.622 75.7854C213.345 75.0984 213.118 75.6604 213.118 77.0354ZM237.118 77.0354C237.118 78.4104 237.345 78.9734 237.622 78.2854C237.9 77.5984 237.9 76.4734 237.622 75.7854C237.345 75.0984 237.118 75.6604 237.118 77.0354ZM229.155 78.5354C229.175 80.1854 229.399 80.7394 229.653 79.7664C229.907 78.7934 229.89 77.4434 229.616 76.7664C229.342 76.0894 229.135 76.8854 229.155 78.5354ZM221.118 79.0354C221.118 80.4104 221.345 80.9734 221.622 80.2854C221.9 79.5984 221.9 78.4734 221.622 77.7854C221.345 77.0984 221.118 77.6604 221.118 79.0354ZM212.118 83.0354C212.118 84.4104 212.345 84.9734 212.622 84.2854C212.9 83.5984 212.9 82.4734 212.622 81.7854C212.345 81.0984 212.118 81.6604 212.118 83.0354ZM190.832 83.7854C189.589 85.3714 189.624 85.4064 191.21 84.1634C192.173 83.4084 192.96 82.6204 192.96 82.4134C192.96 81.5904 192.139 82.1194 190.832 83.7854ZM238.118 84.0354C238.118 85.4104 238.345 85.9734 238.622 85.2854C238.9 84.5984 238.9 83.4734 238.622 82.7854C238.345 82.0984 238.118 82.6604 238.118 84.0354ZM219.96 84.0354C219.96 84.7684 220.26 85.0684 220.627 84.7024C220.993 84.3354 220.993 83.7354 220.627 83.3684C220.26 83.0024 219.96 83.3024 219.96 84.0354ZM197.524 85.3284C197.9 86.3144 198.459 86.8694 198.767 86.5614C199.075 86.2544 198.768 85.4474 198.084 84.7684C197.096 83.7884 196.982 83.9034 197.524 85.3284ZM230.155 86.5354C230.175 88.1854 230.399 88.7394 230.653 87.7664C230.907 86.7934 230.89 85.4434 230.616 84.7664C230.342 84.0894 230.135 84.8854 230.155 86.5354ZM211.039 88.6184C211.087 89.7834 211.324 90.0204 211.643 89.2234C211.932 88.5014 211.896 87.6384 211.564 87.3064C211.232 86.9744 210.996 87.5644 211.039 88.6184ZM187.584 89.5744C186.619 92.0884 186.903 92.7374 188.082 90.7104C188.666 89.7064 188.933 88.6744 188.675 88.4174C188.418 88.1594 187.926 88.6804 187.584 89.5744ZM198.96 89.0354C198.96 89.7684 199.26 90.0684 199.627 89.7024C199.993 89.3354 199.993 88.7354 199.627 88.3684C199.26 88.0024 198.96 88.3024 198.96 89.0354ZM219.039 89.6184C219.087 90.7834 219.324 91.0204 219.643 90.2234C219.932 89.5014 219.896 88.6384 219.564 88.3064C219.232 87.9744 218.996 88.5644 219.039 89.6184ZM239.155 91.5354C239.175 93.1854 239.399 93.7394 239.653 92.7664C239.907 91.7934 239.89 90.4434 239.616 89.7664C239.342 89.0894 239.135 89.8854 239.155 91.5354ZM210.039 93.6184C210.087 94.7834 210.324 95.0204 210.643 94.2234C210.932 93.5014 210.896 92.6384 210.564 92.3064C210.232 91.9744 209.996 92.5644 210.039 93.6184ZM231.118 94.0354C231.118 95.4104 231.345 95.9734 231.622 95.2854C231.9 94.5984 231.9 93.4734 231.622 92.7854C231.345 92.0984 231.118 92.6604 231.118 94.0354ZM218.039 94.6184C218.087 95.7834 218.324 96.0204 218.643 95.2234C218.932 94.5014 218.896 93.6384 218.564 93.3064C218.232 92.9744 217.996 93.5644 218.039 94.6184ZM260.419 95.1024C259.393 96.7624 260.314 96.9924 261.749 95.4344C262.459 94.6654 262.598 94.0354 262.058 94.0354C261.519 94.0354 260.781 94.5154 260.419 95.1024ZM266.171 95.4344C266.88 96.2044 267.618 96.6844 267.81 96.5014C268.403 95.9374 266.9 94.0354 265.862 94.0354C265.322 94.0354 265.461 94.6654 266.171 95.4344ZM184.584 96.5744C183.619 99.0884 183.903 99.7374 185.082 97.7104C185.666 96.7064 185.933 95.6744 185.675 95.4174C185.418 95.1594 184.926 95.6804 184.584 96.5744ZM201.96 97.0354C201.96 97.7684 202.26 98.0684 202.627 97.7024C202.993 97.3354 202.993 96.7354 202.627 96.3684C202.26 96.0024 201.96 96.3024 201.96 97.0354ZM193.46 98.0354C193.8 98.5854 194.303 99.0354 194.578 99.0354C194.853 99.0354 194.8 98.5854 194.46 98.0354C194.12 97.4854 193.617 97.0354 193.342 97.0354C193.067 97.0354 193.12 97.4854 193.46 98.0354ZM209.039 98.6184C209.087 99.7834 209.324 100.02 209.643 99.2234C209.932 98.5014 209.896 97.6384 209.564 97.3064C209.232 96.9744 208.996 97.5644 209.039 98.6184ZM217.118 100.035C217.118 101.41 217.345 101.973 217.622 101.285C217.9 100.598 217.9 99.4734 217.622 98.7854C217.345 98.0984 217.118 98.6604 217.118 100.035ZM240.118 100.035C240.118 101.41 240.345 101.973 240.622 101.285C240.9 100.598 240.9 99.4734 240.622 98.7854C240.345 98.0984 240.118 98.6604 240.118 100.035ZM259.118 100.035C259.118 101.41 259.345 101.973 259.622 101.285C259.9 100.598 259.9 99.4734 259.622 98.7854C259.345 98.0984 259.118 98.6604 259.118 100.035ZM267.96 99.0354C267.96 99.7684 268.26 100.068 268.627 99.7024C268.993 99.3354 268.993 98.7354 268.627 98.3684C268.26 98.0024 267.96 98.3024 267.96 99.0354ZM202.96 100.035C202.96 100.768 203.26 101.068 203.627 100.702C203.993 100.335 203.993 99.7354 203.627 99.3684C203.26 99.0024 202.96 99.3024 202.96 100.035ZM232.155 101.535C232.175 103.185 232.399 103.739 232.653 102.766C232.907 101.793 232.89 100.443 232.616 99.7664C232.342 99.0894 232.135 99.8854 232.155 101.535ZM194.96 101.035C194.96 101.768 195.26 102.068 195.627 101.702C195.993 101.335 195.993 100.735 195.627 100.368C195.26 100.002 194.96 100.302 194.96 101.035ZM190.122 103.578C188.447 107.255 188.767 108.04 190.578 104.697C191.424 103.135 191.929 101.671 191.701 101.442C191.472 101.214 190.762 102.175 190.122 103.578ZM268.96 102.035C268.96 102.768 269.26 103.068 269.627 102.702C269.993 102.335 269.993 101.735 269.627 101.368C269.26 101.002 268.96 101.302 268.96 102.035ZM203.96 103.035C203.96 103.768 204.26 104.068 204.627 103.702C204.993 103.335 204.993 102.735 204.627 102.368C204.26 102.002 203.96 102.302 203.96 103.035ZM208.039 103.618C208.087 104.783 208.324 105.02 208.643 104.223C208.932 103.501 208.896 102.638 208.564 102.306C208.232 101.974 207.996 102.564 208.039 103.618ZM195.96 104.035C195.96 104.768 196.26 105.068 196.627 104.702C196.993 104.335 196.993 103.735 196.627 103.368C196.26 103.002 195.96 103.302 195.96 104.035ZM258.039 104.618C258.087 105.783 258.324 106.02 258.643 105.223C258.932 104.501 258.896 103.638 258.564 103.306C258.232 102.974 257.996 103.564 258.039 104.618ZM216.039 105.618C216.087 106.783 216.324 107.02 216.643 106.223C216.932 105.501 216.896 104.638 216.564 104.306C216.232 103.974 215.996 104.564 216.039 105.618ZM269.96 105.035C269.96 105.768 270.26 106.068 270.627 105.702C270.993 105.335 270.993 104.735 270.627 104.368C270.26 104.002 269.96 104.302 269.96 105.035ZM241.155 107.535C241.175 109.185 241.399 109.739 241.653 108.766C241.907 107.793 241.89 106.443 241.616 105.766C241.342 105.089 241.135 105.885 241.155 107.535ZM196.96 107.035C196.96 107.768 197.26 108.068 197.627 107.702C197.993 107.335 197.993 106.735 197.627 106.368C197.26 106.002 196.96 106.302 196.96 107.035ZM279.832 107.785C278.589 109.371 278.624 109.406 280.21 108.163C281.172 107.408 281.96 106.62 281.96 106.413C281.96 105.59 281.139 106.119 279.832 107.785ZM205.96 107.976C205.96 108.494 206.41 109.195 206.96 109.535C207.51 109.875 207.96 109.451 207.96 108.594C207.96 107.737 207.51 107.035 206.96 107.035C206.41 107.035 205.96 107.458 205.96 107.976ZM233.118 109.035C233.118 110.41 233.345 110.973 233.622 110.285C233.9 109.598 233.9 108.473 233.622 107.785C233.345 107.098 233.118 107.66 233.118 109.035ZM270.96 108.035C270.96 108.768 271.26 109.068 271.627 108.702C271.993 108.335 271.993 107.735 271.627 107.368C271.26 107.002 270.96 107.302 270.96 108.035ZM257.118 110.035C257.118 111.41 257.345 111.973 257.622 111.285C257.9 110.598 257.9 109.473 257.622 108.785C257.345 108.098 257.118 108.66 257.118 110.035ZM197.96 110.035C197.96 110.768 198.26 111.068 198.627 110.702C198.993 110.335 198.993 109.735 198.627 109.368C198.26 109.002 197.96 109.302 197.96 110.035ZM215.118 111.035C215.118 112.41 215.345 112.973 215.622 112.285C215.9 111.598 215.9 110.473 215.622 109.785C215.345 109.098 215.118 109.66 215.118 111.035ZM271.96 111.035C271.96 111.768 272.26 112.068 272.627 111.702C272.993 111.335 272.993 110.735 272.627 110.368C272.26 110.002 271.96 110.302 271.96 111.035ZM184.96 113.035C184.059 113.617 183.935 114.01 184.651 114.02C185.306 114.028 186.12 113.585 186.46 113.035C187.227 111.793 186.881 111.793 184.96 113.035ZM242.118 115.035C242.118 116.41 242.345 116.973 242.622 116.285C242.9 115.598 242.9 114.473 242.622 113.785C242.345 113.098 242.118 113.66 242.118 115.035ZM272.96 114.035C272.96 114.768 273.26 115.068 273.627 114.702C273.993 114.335 273.993 113.735 273.627 113.368C273.26 113.002 272.96 113.302 272.96 114.035ZM199.96 115.035C199.96 115.768 200.26 116.068 200.627 115.702C200.993 115.335 200.993 114.735 200.627 114.368C200.26 114.002 199.96 114.302 199.96 115.035ZM234.155 116.535C234.175 118.185 234.399 118.739 234.653 117.766C234.907 116.793 234.89 115.443 234.616 114.766C234.342 114.089 234.135 114.885 234.155 116.535ZM256.039 115.618C256.087 116.783 256.324 117.02 256.643 116.223C256.932 115.501 256.896 114.638 256.564 114.306C256.232 113.974 255.996 114.564 256.039 115.618ZM300.293 114.702C300.66 115.068 301.26 115.068 301.627 114.702C301.993 114.335 301.693 114.035 300.96 114.035C300.227 114.035 299.927 114.335 300.293 114.702ZM214.039 116.618C214.087 117.783 214.324 118.02 214.643 117.223C214.932 116.501 214.896 115.638 214.564 115.306C214.232 114.974 213.996 115.564 214.039 116.618ZM264.305 117.578C263.979 118.427 263.936 119.345 264.209 119.618C264.483 119.891 264.946 119.196 265.239 118.075C265.863 115.692 265.17 115.324 264.305 117.578ZM274.293 116.702C274.66 117.068 275.26 117.068 275.627 116.702C275.993 116.335 275.693 116.035 274.96 116.035C274.227 116.035 273.927 116.335 274.293 116.702ZM200.991 117.535C200.991 118.085 201.427 119.21 201.96 120.035C202.493 120.86 202.929 121.085 202.929 120.535C202.929 119.985 202.493 118.86 201.96 118.035C201.427 117.21 200.991 116.985 200.991 117.535ZM265.96 119.035C265.96 119.768 266.26 120.068 266.627 119.702C266.993 119.335 266.993 118.735 266.627 118.368C266.26 118.002 265.96 118.302 265.96 119.035ZM213.039 121.618C213.087 122.783 213.324 123.02 213.643 122.223C213.932 121.501 213.896 120.638 213.564 120.306C213.232 119.974 212.996 120.564 213.039 121.618ZM243.155 122.535C243.175 124.185 243.399 124.739 243.653 123.766C243.907 122.793 243.89 121.443 243.616 120.766C243.342 120.089 243.135 120.885 243.155 122.535ZM255.039 121.618C255.087 122.783 255.324 123.02 255.643 122.223C255.932 121.501 255.896 120.638 255.564 120.306C255.232 119.974 254.996 120.564 255.039 121.618ZM266.96 122.035C266.96 122.768 267.26 123.068 267.627 122.702C267.993 122.335 267.993 121.735 267.627 121.368C267.26 121.002 266.96 121.302 266.96 122.035ZM202.96 123.035C202.96 123.768 203.26 124.068 203.627 123.702C203.993 123.335 203.993 122.735 203.627 122.368C203.26 122.002 202.96 122.302 202.96 123.035ZM263.039 123.618C263.087 124.783 263.324 125.02 263.643 124.223C263.932 123.501 263.896 122.638 263.564 122.306C263.232 121.974 262.996 122.564 263.039 123.618ZM235.118 125.035C235.118 126.41 235.345 126.973 235.622 126.285C235.9 125.598 235.9 124.473 235.622 123.785C235.345 123.098 235.118 123.66 235.118 125.035ZM267.96 125.035C267.96 125.768 268.26 126.068 268.627 125.702C268.993 125.335 268.993 124.735 268.627 124.368C268.26 124.002 267.96 124.302 267.96 125.035ZM279.584 125.574C278.619 128.088 278.903 128.737 280.082 126.71C280.666 125.706 280.933 124.674 280.675 124.417C280.418 124.159 279.926 124.68 279.584 125.574ZM203.96 126.035C203.96 126.768 204.26 127.068 204.627 126.702C204.993 126.335 204.993 125.735 204.627 125.368C204.26 125.002 203.96 125.302 203.96 126.035ZM211.197 127.795C210.029 130.286 210.057 130.367 211.563 128.861C212.459 127.965 213.027 126.752 212.826 126.166C212.625 125.58 211.891 126.313 211.197 127.795ZM254.039 126.618C254.087 127.783 254.324 128.02 254.643 127.223C254.932 126.501 254.896 125.638 254.564 125.306C254.232 124.974 253.996 125.564 254.039 126.618ZM262.118 129.035C262.118 130.41 262.345 130.973 262.622 130.285C262.9 129.598 262.9 128.473 262.622 127.785C262.345 127.098 262.118 127.66 262.118 129.035ZM268.995 127.562C268.921 129.725 272.164 133.031 274.267 132.935C276.407 132.838 276.403 132.82 274.126 132.179C272.842 131.818 271.17 130.401 270.411 129.029C269.652 127.657 269.015 126.997 268.995 127.562ZM205.693 129.159C206.372 129.843 207.179 130.15 207.486 129.842C207.794 129.534 207.239 128.975 206.253 128.599C204.828 128.057 204.713 128.171 205.693 129.159ZM244.118 130.035C244.118 131.41 244.345 131.973 244.622 131.285C244.9 130.598 244.9 129.473 244.622 128.785C244.345 128.098 244.118 128.66 244.118 130.035ZM277.365 130.19C276.922 130.905 277.09 131.073 277.805 130.63C278.44 130.238 278.96 129.719 278.96 129.476C278.96 128.642 278.077 129.037 277.365 130.19ZM236.155 132.535C236.175 134.185 236.399 134.739 236.653 133.766C236.907 132.793 236.89 131.443 236.616 130.766C236.342 130.089 236.135 130.885 236.155 132.535ZM253.118 133.035C253.118 134.41 253.345 134.973 253.622 134.285C253.9 133.598 253.9 132.473 253.622 131.785C253.345 131.098 253.118 131.66 253.118 133.035ZM261.118 135.035C261.118 136.41 261.345 136.973 261.622 136.285C261.9 135.598 261.9 134.473 261.622 133.785C261.345 133.098 261.118 133.66 261.118 135.035ZM245.192 138.035C245.192 139.96 245.398 140.748 245.649 139.785C245.901 138.822 245.901 137.248 245.649 136.285C245.398 135.322 245.192 136.11 245.192 138.035ZM252.118 139.035C252.118 140.41 252.345 140.973 252.622 140.285C252.9 139.598 252.9 138.473 252.622 137.785C252.345 137.098 252.118 137.66 252.118 139.035ZM237.155 140.535C237.175 142.185 237.399 142.739 237.653 141.766C237.907 140.793 237.89 139.443 237.616 138.766C237.342 138.089 237.135 138.885 237.155 140.535ZM260.039 140.618C260.087 141.783 260.324 142.02 260.643 141.223C260.932 140.501 260.896 139.638 260.564 139.306C260.232 138.974 259.996 139.564 260.039 140.618ZM251.039 144.618C251.087 145.783 251.324 146.02 251.643 145.223C251.932 144.501 251.896 143.638 251.564 143.306C251.232 142.974 250.996 143.564 251.039 144.618ZM246.155 146.535C246.175 148.185 246.399 148.739 246.653 147.766C246.907 146.793 246.89 145.443 246.616 144.766C246.342 144.089 246.135 144.885 246.155 146.535ZM238.155 147.535C238.175 149.185 238.399 149.739 238.653 148.766C238.907 147.793 238.89 146.443 238.616 145.766C238.342 145.089 238.135 145.885 238.155 147.535ZM259.118 147.035C259.118 148.41 259.345 148.973 259.622 148.285C259.9 147.598 259.9 146.473 259.622 145.785C259.345 145.098 259.118 145.66 259.118 147.035ZM250.118 150.035C250.118 151.41 250.345 151.973 250.622 151.285C250.9 150.598 250.9 149.473 250.622 148.785C250.345 148.098 250.118 148.66 250.118 150.035ZM258.118 153.035C258.118 154.41 258.345 154.973 258.622 154.285C258.9 153.598 258.9 152.473 258.622 151.785C258.345 151.098 258.118 151.66 258.118 153.035ZM247.155 154.535C247.175 156.185 247.399 156.739 247.653 155.766C247.907 154.793 247.89 153.443 247.616 152.766C247.342 152.089 247.135 152.885 247.155 154.535ZM239.155 155.535C239.175 157.185 239.399 157.739 239.653 156.766C239.907 155.793 239.89 154.443 239.616 153.766C239.342 153.089 239.135 153.885 239.155 155.535ZM248.585 157.16C247.751 161.328 248.559 162.136 249.46 158.035C249.84 156.306 249.942 154.684 249.687 154.429C249.432 154.174 248.936 155.403 248.585 157.16ZM257.118 158.035C257.118 159.41 257.345 159.973 257.622 159.285C257.9 158.598 257.9 157.473 257.622 156.785C257.345 156.098 257.118 156.66 257.118 158.035ZM240.118 164.035C240.118 165.41 240.345 165.973 240.622 165.285C240.9 164.598 240.9 163.473 240.622 162.785C240.345 162.098 240.118 162.66 240.118 164.035ZM256.039 163.618C256.087 164.783 256.324 165.02 256.643 164.223C256.932 163.501 256.896 162.638 256.564 162.306C256.232 161.974 255.996 162.564 256.039 163.618ZM255.155 169.535C255.175 171.185 255.399 171.739 255.653 170.766C255.907 169.793 255.89 168.443 255.616 167.766C255.342 167.089 255.135 167.885 255.155 169.535ZM241.155 171.535C241.175 173.185 241.399 173.739 241.653 172.766C241.907 171.793 241.89 170.443 241.616 169.766C241.342 169.089 241.135 169.885 241.155 171.535ZM254.039 175.618C254.087 176.783 254.324 177.02 254.643 176.223C254.932 175.501 254.896 174.638 254.564 174.306C254.232 173.974 253.996 174.564 254.039 175.618ZM242.155 179.535C242.175 181.185 242.399 181.739 242.653 180.766C242.907 179.793 242.89 178.443 242.616 177.766C242.342 177.089 242.135 177.885 242.155 179.535ZM253.118 181.035C253.118 182.41 253.345 182.973 253.622 182.285C253.9 181.598 253.9 180.473 253.622 179.785C253.345 179.098 253.118 179.66 253.118 181.035ZM243.155 186.535C243.175 188.185 243.399 188.739 243.653 187.766C243.907 186.793 243.89 185.443 243.616 184.766C243.342 184.089 243.135 184.885 243.155 186.535ZM252.118 187.035C252.118 188.41 252.345 188.973 252.622 188.285C252.9 187.598 252.9 186.473 252.622 185.785C252.345 185.098 252.118 185.66 252.118 187.035ZM244.46 191.035C244.8 191.585 245.303 192.035 245.578 192.035C245.853 192.035 245.8 191.585 245.46 191.035C245.12 190.485 244.617 190.035 244.342 190.035C244.067 190.035 244.12 190.485 244.46 191.035ZM250.365 191.19C249.922 191.905 250.09 192.073 250.805 191.63C251.44 191.238 251.96 190.719 251.96 190.476C251.96 189.642 251.077 190.037 250.365 191.19ZM247.293 192.702C247.66 193.068 248.26 193.068 248.627 192.702C248.993 192.335 248.693 192.035 247.96 192.035C247.227 192.035 246.927 192.335 247.293 192.702Z" fill="#BBE588"/>
<path fill-rule="evenodd" clip-rule="evenodd" d="M224.215 26.2854C223.671 26.9734 220.885 39.9104 218.024 55.0354C208.538 105.189 207.542 110.018 206.841 109.273C206.458 108.867 204.8 104.71 203.157 100.035C198.396 86.4934 196.91 83.2304 195.205 82.5754C192.753 81.6344 190.955 84.1134 185.995 95.2734L181.433 105.535L132.96 106.071V114.035L158.21 114.02C172.097 114.011 184.122 113.586 184.931 113.074C185.74 112.563 188.038 108.632 190.039 104.34C194.288 95.2234 193.224 94.1774 200.799 114.919C205.8 128.612 207.872 131.551 210.603 128.82C211.871 127.553 217.791 98.4634 223.534 65.2854C224.51 59.6474 225.68 55.0354 226.134 55.0354C226.588 55.0354 226.96 55.6154 226.96 56.3244C226.96 57.0324 228.758 71.3204 230.955 88.0744C233.152 104.827 236.082 127.31 237.466 138.035C243.326 183.444 244.227 189.596 245.191 190.785C245.749 191.473 246.995 192.035 247.96 192.035C250.852 192.035 251.633 190.089 253.78 177.535C261.473 132.554 264.248 117.431 264.945 116.695C265.382 116.233 266.525 118.258 267.485 121.195C270.275 129.729 271.737 132.035 274.357 132.035C276.324 132.035 277.397 130.584 281.015 123.035L285.327 114.035H355.081L354.46 106.535L318.553 106.272C278.543 105.979 280.811 105.605 277.447 113.065C276.462 115.248 275.312 117.035 274.891 117.035C274.47 117.035 272.489 112.124 270.489 106.121C266.957 95.5224 265.541 93.4914 262.498 94.6594C260.361 95.4794 259.43 99.6074 253.499 134.535C249.3 159.271 248.9 161.309 248.359 160.767C248.132 160.541 247.295 155.221 246.497 148.945C237.358 77.0294 230.561 27.3034 229.732 26.2854C229.173 25.5984 227.925 25.0354 226.96 25.0354C225.995 25.0354 224.76 25.5984 224.215 26.2854Z" fill="#6DD600"/>
</svg>
